# Blender v2.69 (sub 0) OBJ File: ''
# www.blender.org
o Cube
v 1.000000 -1.000000 -1.000000
v 1.000000 -1.000000 1.000000
v -1.000000 -1.000000 1.000000
v -1.000000 -1.000000 -1.000000
v 1.000000 1.000000 -0.999999
v 0.999999 1.000000 1.000001
v -1.000000 1.000000 1.000000
v -1.000000 1.000000 -1.000000
vt 0.000101 0.666635
vt 0.000100 0.333368
vt 0.250051 0.666634
vt 0.749950 0.666633
vt 0.500000 0.666633
vt 0.749950 0.333366
vt 0.999900 0.666633
vt 0.999900 0.333366
vt 0.250049 0.000101
vt 0.499999 0.000100
vt 0.250050 0.333367
vt 0.500000 0.333366
vt 0.500001 0.999899
vt 0.250051 0.999900
vn 0.000000 -1.000000 0.000000
vn 0.000000 1.000000 0.000000
vn 1.000000 -0.000000 0.000000
vn 0.000000 -0.000000 1.000000
vn -1.000000 -0.000000 -0.000000
vn 0.000000 0.000000 -1.000000
vn 1.000000 0.000000 0.000001
s off
f 1/1/1 2/2/1 4/3/1
f 5/4/2 8/5/2 6/6/2
f 1/7/3 5/4/3 2/8/3
f 2/9/4 6/10/4 3/11/4
f 3/11/5 7/12/5 4/3/5
f 5/13/6 1/14/6 8/5/6
f 2/2/1 3/11/1 4/3/1
f 8/5/2 7/12/2 6/6/2
f 5/4/7 6/6/7 2/8/7
f 6/10/4 7/12/4 3/11/4
f 7/12/5 8/5/5 4/3/5
f 1/14/6 4/3/6 8/5/6
